HIERARCHY
ROOT Hips
{
	OFFSET -0.001795 -0.223333 0.028219
	CHANNELS 6 Xposition Yposition Zposition Zrotation Yrotation Xrotation 
	JOINT LeftUpLeg
	{
		OFFSET 0.069520 -0.091406 -0.006815
		CHANNELS 3 Zrotation Yrotation Xrotation
		JOINT LeftLeg
		{
			OFFSET 0.034277 -0.375199 -0.004496
			CHANNELS 3 Zrotation Yrotation Xrotation
			JOINT LeftFoot
			{
				OFFSET -0.013596 -0.397961 -0.043693
				CHANNELS 3 Zrotation Yrotation Xrotation
				JOINT LeftToe
				{
					OFFSET 0.026358 -0.055791 0.119288
					CHANNELS 3 Zrotation Yrotation Xrotation
					End Site
					{
						OFFSET 0.000000 0.000000 0.000000
					}
				}
			}
		}
	}
	JOINT RightUpLeg
	{
		OFFSET -0.067670 -0.090522 -0.004320
		CHANNELS 3 Zrotation Yrotation Xrotation
		JOINT RightLeg
		{
			OFFSET -0.038290 -0.382569 -0.008850
			CHANNELS 3 Zrotation Yrotation Xrotation
			JOINT RightFoot
			{
				OFFSET 0.015774 -0.398415 -0.042312
				CHANNELS 3 Zrotation Yrotation Xrotation
				JOINT RightToe
				{
					OFFSET -0.025372 -0.048144 0.123348
					CHANNELS 3 Zrotation Yrotation Xrotation
					End Site
					{
						OFFSET 0.000000 0.000000 0.000000
					}
				}
			}
		}
	}
	JOINT Spine
	{
		OFFSET -0.002533 0.108963 -0.026696
		CHANNELS 3 Zrotation Yrotation Xrotation
		JOINT Spine1
		{
			OFFSET 0.005487 0.135180 0.001092
			CHANNELS 3 Zrotation Yrotation Xrotation
			JOINT Spine2
			{
				OFFSET 0.001457 0.052922 0.025425
				CHANNELS 3 Zrotation Yrotation Xrotation
				JOINT Neck
				{
					OFFSET -0.002778 0.213870 -0.042857
					CHANNELS 3 Zrotation Yrotation Xrotation
					JOINT Head
					{
						OFFSET 0.005152 0.064970 0.051349
						CHANNELS 3 Zrotation Yrotation Xrotation
						End Site
						{
							OFFSET 0.000000 0.000000 0.000000
						}
					}
				}
				JOINT LeftShoulder
				{
					OFFSET 0.078845 0.121749 -0.034090
					CHANNELS 3 Zrotation Yrotation Xrotation
					JOINT LeftArm
					{
						OFFSET 0.090977 0.030469 -0.008868
						CHANNELS 3 Zrotation Yrotation Xrotation
						JOINT LeftForeArm
						{
							OFFSET 0.259612 -0.012772 -0.027456
							CHANNELS 3 Zrotation Yrotation Xrotation
							JOINT LeftHand
							{
								OFFSET 0.249234 0.008986 -0.001171
								CHANNELS 3 Zrotation Yrotation Xrotation
								End Site
								{
									OFFSET 0.000000 0.000000 0.000000
								}
							}
						}
					}
				}
				JOINT RightShoulder
				{
					OFFSET -0.081759 0.118833 -0.038615
					CHANNELS 3 Zrotation Yrotation Xrotation
					JOINT RightArm
					{
						OFFSET -0.096012 0.032551 -0.009143
						CHANNELS 3 Zrotation Yrotation Xrotation
						JOINT RightForeArm
						{
							OFFSET -0.253742 -0.013329 -0.021401
							CHANNELS 3 Zrotation Yrotation Xrotation
							JOINT RightHand
							{
								OFFSET -0.255298 0.007772 -0.005559
								CHANNELS 3 Zrotation Yrotation Xrotation
								End Site
								{
									OFFSET 0.000000 0.000000 0.000000
								}
							}
						}
					}
				}
			}
		}
	}
}
MOTION
Frames: 10
Frame Time: 0.050000
0.000000 0.591510 0.000000 -4.610829 -3.235859 29.558764 8.603613 1.962606 49.737581 -10.715580 -1.447741 -73.083121 51.711469 23.066478 120.066303 0.000000 0.000000 0.000000 -13.744034 3.248794 46.569220 17.664903 7.252625 -71.431268 -71.931822 -30.350164 114.379306 0.000000 0.000000 0.000000 6.990751 2.338692 -26.432747 -2.531224 2.255221 -66.022860 3.275808 0.472290 68.748572 6.124703 2.998527 -99.404468 0.000000 0.000000 0.000000 -21.941570 6.412367 -1.261252 -32.477065 -10.340766 -9.773295 -10.026597 66.636148 -4.335406 0.000000 0.000000 0.000000 23.186707 -19.470130 -12.212569 49.393986 -13.283662 -18.886761 -35.254965 -57.229343 23.572856 0.000000 0.000000 0.000000 
-0.000318 0.597050 0.000102 -4.899864 -5.190089 29.403735 6.515184 3.608805 49.087862 -7.716336 0.705859 -70.608351 44.139476 22.575330 121.571617 0.000000 0.000000 0.000000 -15.176391 4.647225 46.040952 17.919227 7.798096 -71.146237 -71.823631 -29.051090 116.297120 0.000000 0.000000 0.000000 5.414533 2.051035 -24.159504 -2.832495 2.857968 -70.566896 5.871426 -2.967034 71.835430 -3.755222 3.162840 -104.736141 0.000000 0.000000 0.000000 -25.200120 7.684165 -0.785419 -30.822583 -10.714784 -10.473210 -7.580721 60.127935 -2.173905 0.000000 0.000000 0.000000 20.849960 -20.806669 -13.679022 48.897800 -14.227550 -19.572568 -36.626983 -53.630664 21.863910 0.000000 0.000000 0.000000 
-0.000507 0.604892 0.000271 -4.691587 -5.908254 29.539403 6.386064 3.851716 48.819023 -7.273005 1.155091 -70.524400 40.426118 22.741617 120.531862 0.000000 0.000000 0.000000 -15.227093 4.814951 44.952536 16.408903 7.085045 -70.725084 -66.433436 -27.815293 116.628570 0.000000 0.000000 0.000000 3.410048 2.143646 -26.172000 2.476631 3.280775 -64.287458 3.170741 1.050109 69.442972 3.241617 3.058580 -106.850832 0.000000 0.000000 0.000000 -27.558509 8.028245 -2.102211 -29.823435 -9.392709 -10.029325 -11.380187 54.916630 -5.050177 0.000000 0.000000 0.000000 23.747323 -18.964903 -12.069913 45.711022 -12.417520 -17.726297 -27.012158 -55.317680 16.802282 0.000000 0.000000 0.000000 
-0.000728 0.608492 -0.000629 -5.212217 -7.642780 29.967298 4.730547 5.227740 48.609517 -7.177757 1.588032 -69.475822 39.810757 23.433601 118.897766 0.000000 0.000000 0.000000 -16.628411 6.021875 43.580916 16.630108 7.565986 -70.312089 -62.350223 -25.668915 119.397634 0.000000 0.000000 0.000000 3.671780 2.160760 -24.751518 1.030582 3.670008 -65.744637 5.426217 0.207553 69.699916 1.164062 3.157440 -104.777219 0.000000 0.000000 0.000000 -27.241179 11.130333 -4.128875 -29.448288 -6.688300 -10.212310 -15.051330 52.693654 -6.867911 0.000000 0.000000 0.000000 22.458812 -21.080941 -13.950343 45.526150 -13.905961 -17.622084 -28.405169 -53.581255 16.251461 0.000000 0.000000 0.000000 
-0.000732 0.616394 -0.002133 -4.088510 -6.020896 30.537405 5.472400 3.942073 46.089352 -7.250088 1.203623 -67.745683 38.378355 23.304643 117.910896 0.000000 0.000000 0.000000 -14.676250 4.353661 42.644550 14.389279 5.933764 -70.219508 -63.827254 -26.367511 118.538864 0.000000 0.000000 0.000000 2.847709 2.047168 -26.054747 2.164232 3.273554 -64.485081 3.609499 1.367821 70.368372 6.345988 3.291952 -108.181600 0.000000 0.000000 0.000000 -27.400074 11.350552 -4.733687 -29.118812 -4.338634 -10.656750 -20.287835 53.609936 -9.962632 0.000000 0.000000 0.000000 26.864968 -21.193798 -14.498146 41.676197 -13.923532 -16.736203 -29.708179 -53.112227 16.872637 0.000000 0.000000 0.000000 
-0.000265 0.619389 -0.004624 -4.730171 -6.920864 31.098497 4.785961 4.428662 45.378139 -6.070677 2.115100 -68.407111 37.209062 22.854024 120.415894 0.000000 0.000000 0.000000 -16.016378 5.140093 40.482170 15.686554 6.498178 -67.759618 -64.441287 -26.701135 117.863599 0.000000 0.000000 0.000000 3.905981 2.157012 -25.453785 2.592225 3.809995 -66.093338 4.834525 2.958761 72.706369 8.836257 3.094292 -109.492745 0.000000 0.000000 0.000000 -27.067324 12.567298 -6.253473 -29.724943 -2.885216 -11.031731 -25.911185 57.397470 -14.057202 0.000000 0.000000 0.000000 27.179106 -22.517129 -15.008891 41.326959 -15.094682 -17.332648 -33.616726 -51.730087 18.941866 0.000000 0.000000 0.000000 
0.000428 0.623436 -0.007503 -3.826137 -5.608652 31.951226 4.953022 3.649822 43.073110 -5.448722 2.116580 -67.050025 35.586039 22.505547 120.749778 0.000000 0.000000 0.000000 -14.931911 4.204632 40.253969 15.086932 5.892577 -68.434777 -63.446020 -26.453979 118.496243 0.000000 0.000000 0.000000 3.305355 2.020555 -26.083370 1.635723 3.294566 -66.088552 4.465034 2.798296 73.730888 10.847486 3.195603 -110.266012 0.000000 0.000000 0.000000 -25.573184 13.247597 -6.735449 -31.682268 -1.122410 -12.071448 -33.201451 63.326909 -19.737515 0.000000 0.000000 0.000000 27.815420 -22.188190 -14.553430 41.839965 -15.475160 -17.956673 -39.982836 -52.928107 23.773326 0.000000 0.000000 0.000000 
0.001157 0.623657 -0.009850 -3.457203 -4.593441 32.900718 5.340475 3.064311 41.940034 -5.182139 2.043349 -67.073158 31.288178 21.936899 121.738331 0.000000 0.000000 0.000000 -14.574361 3.709811 39.259421 14.730633 5.356141 -68.300685 -61.287043 -25.494968 120.172272 0.000000 0.000000 0.000000 2.758208 1.916251 -26.745859 1.940679 3.119510 -66.617630 3.732365 2.856690 75.619423 15.018717 3.553633 -111.525683 0.000000 0.000000 0.000000 -24.875108 15.072466 -8.225117 -32.932346 -0.456560 -12.822055 -41.644319 69.608977 -27.689952 0.000000 0.000000 0.000000 27.109983 -22.098119 -13.923703 42.719647 -16.151967 -18.943607 -48.161255 -54.740897 30.702932 0.000000 0.000000 0.000000 
0.001731 0.624264 -0.011269 -2.749874 -3.369882 33.403579 6.190085 2.312514 41.541095 -5.756986 1.457720 -67.280878 32.803825 21.760071 121.839286 0.000000 0.000000 0.000000 -14.165608 3.202878 39.431247 14.766621 5.059059 -69.053115 -61.952792 -25.506338 120.765001 0.000000 0.000000 0.000000 2.264433 1.738772 -26.879755 1.103634 2.761238 -68.123761 3.337257 2.075467 77.615982 16.428357 3.729909 -112.021572 0.000000 0.000000 0.000000 -23.938161 16.037942 -8.693624 -34.645689 1.354679 -14.105930 -49.485714 73.170846 -34.625989 0.000000 0.000000 0.000000 25.329185 -22.406536 -13.736639 45.111010 -17.893692 -20.703869 -54.885519 -55.123224 36.453547 0.000000 0.000000 0.000000 
0.002022 0.624896 -0.011801 -2.450145 -2.534704 33.804840 7.275083 1.576033 41.342624 -6.057149 1.142742 -67.397102 30.382010 21.654142 121.115072 0.000000 0.000000 0.000000 -13.671249 2.740895 39.071541 14.798449 4.706977 -67.835464 -61.131778 -26.123369 119.341401 0.000000 0.000000 0.000000 2.494534 1.731375 -27.620112 0.152654 2.371708 -68.168848 3.199003 1.343463 79.092950 18.537890 4.102352 -112.875397 0.000000 0.000000 0.000000 -24.128248 17.197099 -9.415079 -35.652535 2.209782 -14.994527 -57.901496 75.819641 -42.269021 0.000000 0.000000 0.000000 24.084596 -22.708821 -13.776500 46.658259 -19.209771 -22.044098 -60.234113 -54.367546 40.420512 0.000000 0.000000 0.000000 
